<svg width="1081" height="183" viewBox="0 0 1081 183" fill="none" xmlns="http://www.w3.org/2000/svg">
<path d="M87.5702 85.98L78.7202 141.84H48.6802L64.6402 41H94.6702L123.54 96.86L132.39 41H162.28L146.32 141.84H116.14L87.5602 85.98H87.5702Z" fill="white"/>
<path d="M179.26 137.85C172.2 133.35 167.34 127.21 164.68 119.42C162.02 111.63 161.56 102.81 163.3 92.94C164.94 83.65 168.52 75.07 174.04 67.19C179.55 59.31 186.69 52.97 195.44 48.18C204.19 43.39 213.99 41 224.82 41C235.65 41 244.6 43.3 251.66 47.89C258.72 52.49 263.61 58.72 266.31 66.61C269.02 74.49 269.5 83.27 267.76 92.94C266.02 102.71 262.25 111.51 256.44 119.35C250.64 127.18 243.38 133.35 234.68 137.85C225.97 142.35 216.49 144.6 206.24 144.6C195.31 144.6 186.31 142.35 179.25 137.85H179.26ZM222.86 114.35C226.49 112.08 229.53 109.05 232 105.28C234.47 101.51 236.13 97.4 237.01 92.95C237.88 88.31 237.81 84.1 236.79 80.33C235.77 76.56 233.84 73.56 230.99 71.33C228.14 69.11 224.48 67.99 220.03 67.99C215.58 67.99 211.54 69.13 207.91 71.4C204.28 73.67 201.26 76.72 198.84 80.54C196.42 84.36 194.82 88.5 194.05 92.95C193.08 97.59 193.11 101.8 194.12 105.57C195.13 109.34 197.07 112.32 199.92 114.49C202.77 116.67 206.42 117.75 210.88 117.75C215.34 117.75 219.22 116.61 222.85 114.34L222.86 114.35Z" fill="white"/>
<path d="M283.3 132.41C275.85 124.29 273.48 111.66 276.19 94.54L284.75 41H315.66L307.39 92.94C306.03 101.36 306.74 107.31 309.49 110.79C312.25 114.27 316.62 116.01 322.62 116.01C328.62 116.01 333.72 114.1 337.64 110.28C341.56 106.46 344.14 100.68 345.4 92.94L353.67 41H385.3L376.74 94.68C375.09 104.93 371.73 113.81 366.66 121.3C361.58 128.8 354.88 134.55 346.56 138.57C338.24 142.58 328.57 144.59 317.54 144.59C302.16 144.59 290.75 140.53 283.3 132.4V132.41Z" fill="white"/>
<path d="M387.76 41H418.23L424.76 108.76L456.83 41H489.62L440.72 141.84H400.53L387.76 41Z" fill="white"/>
<path d="M492.96 137.85C485.9 133.35 481.04 127.21 478.38 119.42C475.72 111.63 475.26 102.81 477 92.94C478.64 83.65 482.22 75.07 487.74 67.19C493.25 59.31 500.39 52.97 509.14 48.18C517.89 43.39 527.69 41 538.52 41C549.35 41 558.3 43.3 565.36 47.89C572.42 52.49 577.31 58.72 580.01 66.61C582.72 74.49 583.2 83.27 581.46 92.94C579.72 102.71 575.95 111.51 570.14 119.35C564.34 127.18 557.08 133.35 548.38 137.85C539.67 142.35 530.19 144.6 519.94 144.6C509.01 144.6 500.01 142.35 492.95 137.85H492.96ZM536.56 114.35C540.19 112.08 543.23 109.05 545.7 105.28C548.17 101.51 549.83 97.4 550.71 92.95C551.58 88.31 551.51 84.1 550.49 80.33C549.47 76.56 547.54 73.56 544.69 71.33C541.84 69.11 538.18 67.99 533.73 67.99C529.28 67.99 525.24 69.13 521.61 71.4C517.98 73.67 514.96 76.72 512.54 80.54C510.12 84.36 508.52 88.5 507.75 92.95C506.78 97.59 506.81 101.8 507.82 105.57C508.83 109.34 510.77 112.32 513.62 114.49C516.47 116.67 520.12 117.75 524.58 117.75C529.04 117.75 532.92 116.61 536.55 114.34L536.56 114.35Z" fill="white"/>
<path d="M601.41 139.3C594.3 135.77 589.12 131.03 585.89 125.08C582.65 119.13 581.37 112.72 582.04 105.86H612.66C612.76 109.63 614.11 112.78 616.72 115.29C619.33 117.81 623.05 119.31 627.89 119.79C633.02 120.28 637.32 119.77 640.8 118.27C644.28 116.77 646.41 114.72 647.18 112.1C647.86 109.68 646.99 107.77 644.57 106.37C642.15 104.97 637.8 103.93 631.51 103.25C617.1 101.61 606.63 98.1 600.1 92.73C593.57 87.36 591.08 80.03 592.63 70.75C593.79 64.46 596.77 59.09 601.55 54.64C606.34 50.19 612.24 46.81 619.25 44.48C626.26 42.16 633.54 41 641.09 41C650.18 41 658.14 42.5 664.96 45.5C671.78 48.5 677.03 52.78 680.7 58.34C684.37 63.9 686.07 70.46 685.78 78L656.18 77.71C655.99 74.23 654.1 71.4 650.52 69.22C646.94 67.04 642.54 65.96 637.32 65.96C634.71 65.96 632.34 66.28 630.21 66.9C628.08 67.53 626.41 68.42 625.2 69.58C623.99 70.74 623.24 72 622.95 73.35C622.75 75.29 623.48 76.71 625.13 77.63C626.77 78.55 629.82 79.35 634.27 80.02L636.3 80.31C653.13 82.34 664.76 85.99 671.2 91.27C677.63 96.54 680.22 103.48 678.96 112.09C678.18 118.47 675.5 124.11 670.91 128.99C666.31 133.88 660.22 137.7 652.63 140.45C645.04 143.21 636.45 144.58 626.88 144.58C617.31 144.58 608.53 142.81 601.42 139.28L601.41 139.3Z" fill="white"/>
<path d="M692.03 139.95C689.8 138.69 688.16 136.98 687.1 134.8C686.03 132.62 685.7 130.23 686.08 127.62C686.46 125.11 687.53 122.76 689.27 120.58C691.01 118.4 693.21 116.66 695.87 115.36C698.53 114.05 701.31 113.4 704.21 113.4C707.11 113.4 709.67 114.05 711.9 115.36C714.12 116.67 715.79 118.41 716.9 120.58C718.01 122.76 718.37 125.1 717.99 127.62C717.6 130.23 716.51 132.6 714.73 134.73C712.94 136.86 710.71 138.57 708.06 139.88C705.4 141.19 702.62 141.84 699.72 141.84C696.82 141.84 694.25 141.21 692.03 139.95Z" fill="white"/>
<path d="M747.6 137.78C740.54 133.23 735.63 127.07 732.87 119.28C730.11 111.49 729.61 102.72 731.35 92.95C732.99 83.66 736.62 75.06 742.23 67.12C747.84 59.19 754.97 52.85 763.63 48.11C772.29 43.37 781.79 41 792.14 41C802.49 41 811.15 43.27 818.11 47.82C825.07 52.37 829.96 58.58 832.76 66.46C835.56 74.34 836.1 83.17 834.36 92.94C832.62 102.52 828.85 111.25 823.04 119.13C817.24 127.01 810.03 133.23 801.42 137.77C792.81 142.31 783.52 144.59 773.56 144.59C763.6 144.59 754.65 142.32 747.59 137.77L747.6 137.78ZM793.45 121.02C798.48 118.07 802.64 114.11 805.93 109.12C809.22 104.14 811.44 98.75 812.6 92.94C813.66 86.85 813.45 81.31 811.95 76.33C810.45 71.35 807.72 67.41 803.75 64.5C799.78 61.6 794.7 60.15 788.51 60.15C782.71 60.15 777.29 61.67 772.26 64.72C767.23 67.77 763.05 71.81 759.71 76.84C756.37 81.87 754.17 87.24 753.11 92.95C751.95 99.24 752.12 104.85 753.62 109.78C755.12 114.71 757.85 118.56 761.82 121.32C765.78 124.08 770.82 125.46 776.91 125.46C783 125.46 788.42 123.99 793.45 121.03V121.02Z" fill="white"/>
<path d="M871.8 73.21L861.06 141.84H840.02L855.98 41H877.02L914.74 111.08L925.91 41H946.66L930.7 141.84H908.94L871.8 73.21Z" fill="white"/>
<path d="M980.62 58.41L976.7 83.08H1019.07L1016.17 100.78H973.8L970.17 123.99H1018.54L1015.71 141.84H945.79L961.9 41H1031.67L1028.91 58.41H980.62Z" fill="white"/>
<path d="M1080.28 0L1051.29 182.84H0L29.05 0H443.88L433.93 20.5H46.83L24.3 162.34H1033.45L1055.91 20.5H499.61L489.67 41H456.83L476.73 0H1080.28Z" fill="white"/>
</svg>
